<svg width="162" height="120" viewBox="0 0 162 120" fill="none" xmlns="http://www.w3.org/2000/svg">
<path d="M76.5634 94.3262H57.5894V119.158H76.5634V94.3262Z" fill="#E6F1E4"/>
<path d="M76.5634 120H57.5904C57.1263 120 56.7493 119.623 56.7493 119.159V94.326C56.7493 93.8616 57.1263 93.4844 57.5904 93.4844H76.5634C77.0275 93.4844 77.4045 93.8616 77.4045 94.326V119.158C77.4045 119.623 77.0284 120 76.5634 120ZM58.4315 118.317H75.7223V95.1676H58.4315V118.317Z" fill="#222222"/>
<path d="M95.1216 120H38.9149C38.4508 120 38.0737 119.622 38.0737 119.158C38.0737 118.694 38.4508 118.316 38.9149 118.316H95.1216C95.5856 118.316 95.9627 118.694 95.9627 119.158C95.9627 119.622 95.5866 120 95.1216 120Z" fill="#222222"/>
<path d="M133.254 97.2762H0.899078C0.435023 97.2762 0.0579834 96.8989 0.0579834 96.4345V0.841622C0.0579834 0.377278 0.435023 0 0.899078 0H133.254C133.718 0 134.095 0.377278 134.095 0.841622V96.4345C134.095 96.8989 133.718 97.2762 133.254 97.2762ZM1.74017 95.5929H132.413V1.68324H1.74017V95.5929Z" fill="#222222"/>
<path d="M133.196 84.3359H0.841064V96.4331H133.196V84.3359Z" fill="#E6F1E4"/>
<path d="M133.196 97.2755H0.841094C0.37704 97.2755 0 96.8982 0 96.4338V84.3358C0 83.8714 0.37704 83.4941 0.841094 83.4941H133.196C133.66 83.4941 134.037 83.8714 134.037 84.3358V96.4338C134.037 96.8982 133.66 97.2755 133.196 97.2755ZM1.68219 95.5922H132.355V85.1774H1.68219V95.5922Z" fill="#222222"/>
<g opacity="0.1294">
<path d="M76.5632 97.3418H57.5892V101.269H76.5632V97.3418Z" fill="#222222"/>
</g>
<path d="M133.337 46.4447C138.307 46.4447 142.335 42.1456 142.335 36.8425C142.335 31.5393 138.307 27.2402 133.337 27.2402C128.368 27.2402 124.34 31.5393 124.34 36.8425C124.34 42.1456 128.368 46.4447 133.337 46.4447Z" fill="white"/>
<path d="M133.337 47.2862C127.912 47.2862 123.498 42.6011 123.498 36.8423C123.498 31.0835 127.912 26.3984 133.337 26.3984C138.763 26.3984 143.176 31.0835 143.176 36.8423C143.176 42.6011 138.763 47.2862 133.337 47.2862ZM133.337 28.0817C128.839 28.0817 125.181 32.0112 125.181 36.8423C125.181 41.6724 128.84 45.6029 133.337 45.6029C137.835 45.6029 141.494 41.6734 141.494 36.8423C141.494 32.0122 137.835 28.0817 133.337 28.0817Z" fill="#222222"/>
<path d="M73.5991 65.0194C82.9856 76.865 92.606 88.4968 102.45 99.9052C103.252 100.835 104.083 101.785 105.139 102.342C108.075 103.888 111.823 101.587 112.848 98.2761C113.875 94.9648 112.71 91.2162 110.719 88.4195C108.727 85.6228 106 83.5642 103.402 81.4224C95.2926 74.7368 88.0515 66.8207 81.9647 57.9865C81.1303 56.7764 79.9953 55.3978 78.6321 55.6745C77.7582 55.8525 77.1481 56.6719 76.6164 57.4361C74.9941 59.7714 73.4541 63.343 73.5991 65.0194Z" fill="white"/>
<path d="M107.145 103.677C106.306 103.677 105.491 103.481 104.747 103.088C103.528 102.445 102.616 101.388 101.813 100.456C92.0075 89.0927 82.2933 77.3467 72.9397 65.5427C72.8373 65.4131 72.7754 65.2573 72.7609 65.0929C72.5907 63.1262 74.271 59.3379 75.9261 56.9562C76.4385 56.2191 77.212 55.1037 78.4649 54.8502C80.5329 54.4314 82.0217 56.5877 82.6569 57.5086C88.7118 66.2963 95.8708 74.1234 103.936 80.7732C104.256 81.0373 104.579 81.3004 104.901 81.5635C107.207 83.4441 109.592 85.3886 111.402 87.9318C113.816 91.3215 114.656 95.282 113.651 98.5257C113.009 100.596 111.386 102.39 109.413 103.208C108.66 103.521 107.893 103.677 107.145 103.677ZM74.4315 64.7156C83.7165 76.4267 93.3572 88.0808 103.087 99.3566C103.794 100.176 104.594 101.105 105.532 101.599C106.489 102.104 107.639 102.122 108.771 101.654C110.293 101.022 111.549 99.6333 112.046 98.0284C112.898 95.283 112.145 91.8739 110.034 88.9089C108.355 86.5514 106.061 84.6795 103.84 82.8695C103.515 82.6045 103.19 82.3394 102.867 82.0734C94.6817 75.3249 87.4163 67.3817 81.2724 58.4653C80.6324 57.5357 79.6695 56.3197 78.8004 56.5006C78.2541 56.6109 77.764 57.2619 77.3077 57.9178C75.7753 60.1234 74.4673 63.2442 74.4315 64.7156Z" fill="#222222"/>
<path d="M79.6695 47.2402L68.4413 53.0407C65.9615 54.3215 64.9368 57.3339 66.1182 59.8627L71.5988 71.5873C72.8024 74.1635 75.8517 75.2934 78.4417 74.1238L90.2838 68.779L79.6695 47.2402Z" fill="white"/>
<path d="M76.3283 75.4211C74.0506 75.4211 71.8579 74.1278 70.837 71.9444L65.3563 60.2197C63.9767 57.2682 65.162 53.7866 68.0555 52.293L79.2837 46.4916C79.4839 46.3881 79.7197 46.3706 79.9324 46.4403C80.147 46.5109 80.324 46.6647 80.4245 46.8679L91.0388 68.4076C91.1394 68.6117 91.1529 68.8488 91.0765 69.0635C90.9992 69.2783 90.8387 69.4524 90.6308 69.5462L78.7887 74.891C77.9911 75.2519 77.1539 75.4211 76.3283 75.4211ZM79.2934 48.3818L68.827 53.7895C66.7397 54.8672 65.8851 57.3785 66.8799 59.5067L72.3606 71.2314C73.3641 73.379 75.9377 74.3299 78.0965 73.3577L89.1439 68.3709L79.2934 48.3818Z" fill="#222222"/>
<path d="M79.2827 47.5524L120.695 12.7344L142.414 61.6443L89.5973 69.0902L79.2827 47.5524Z" fill="white"/>
<path d="M89.5973 69.9318C89.2773 69.9318 88.9805 69.7489 88.8393 69.4539L78.5238 47.9161C78.3575 47.5697 78.4474 47.1547 78.7413 46.908L120.153 12.09C120.355 11.9197 120.624 11.8549 120.884 11.9139C121.141 11.9739 121.356 12.1509 121.463 12.3918L143.184 61.3027C143.291 61.5446 143.279 61.8212 143.151 62.0524C143.024 62.2836 142.794 62.4413 142.533 62.4771L89.7163 69.9221C89.6756 69.9289 89.6369 69.9318 89.5973 69.9318ZM80.323 47.7768L90.0904 68.1711L141.194 60.968L120.38 14.0992L80.323 47.7768Z" fill="#222222"/>
<path d="M142.294 19.8283C142.178 19.8283 142.061 19.8051 141.949 19.7538C141.525 19.5622 141.337 19.064 141.528 18.6403L145.79 9.19867C145.981 8.77592 146.479 8.58631 146.902 8.77786C147.326 8.9694 147.514 9.4676 147.323 9.89132L143.061 19.333C142.92 19.6435 142.615 19.8283 142.294 19.8283Z" fill="#222222"/>
<path d="M149.678 28.3988C149.386 28.3988 149.1 28.2459 148.946 27.9722C148.717 27.5688 148.858 27.0541 149.262 26.8249C152.116 25.2035 155.056 23.646 158.002 22.1969C158.418 21.9899 158.923 22.163 159.128 22.58C159.333 22.9969 159.161 23.5019 158.745 23.707C155.828 25.1416 152.917 26.6836 150.092 28.2885C149.961 28.364 149.818 28.3988 149.678 28.3988Z" fill="#222222"/>
<path d="M161.158 44.5588C161.072 44.5588 160.985 44.5453 160.899 44.5172L150.769 41.232C150.328 41.0888 150.085 40.6138 150.229 40.1717C150.372 39.7306 150.846 39.4878 151.289 39.631L161.418 42.9162C161.859 43.0594 162.102 43.5334 161.959 43.9755C161.844 44.3324 161.513 44.5588 161.158 44.5588Z" fill="#222222"/>
<path d="M67.577 59.0702C67.548 59.0702 67.518 59.0653 67.488 59.0557C67.3411 59.0073 67.2618 58.8477 67.3111 58.7006L68.4906 55.1494C68.5389 55.0033 68.6965 54.9211 68.8454 54.9723C68.9924 55.0207 69.0716 55.1803 69.0223 55.3274L67.8429 58.8786C67.8032 58.9957 67.6949 59.0702 67.577 59.0702Z" fill="#222222"/>
<path d="M69.5502 63.2892C69.5251 63.2892 69.4989 63.2863 69.4738 63.2785C69.3249 63.236 69.2379 63.0812 69.2814 62.9322C70.2221 59.6296 71.301 56.3153 72.4882 53.0813C72.5414 52.9353 72.7019 52.8637 72.8488 52.915C72.9939 52.9691 73.0683 53.1297 73.0151 53.2758C71.8328 56.4962 70.7577 59.7969 69.8209 63.086C69.7841 63.2079 69.672 63.2892 69.5502 63.2892Z" fill="#222222"/>
<path d="M71.6462 66.4079C71.6143 66.4079 71.5814 66.4021 71.5485 66.3905C71.4035 66.3363 71.3291 66.1748 71.3832 66.0297C73.2356 61.0244 74.9554 55.9012 76.4955 50.8011C76.541 50.6531 76.6976 50.569 76.8446 50.6135C76.9934 50.658 77.0766 50.8147 77.0321 50.9627C75.4891 56.0734 73.7654 61.2073 71.9092 66.2241C71.8676 66.3383 71.7602 66.4079 71.6462 66.4079Z" fill="#222222"/>
<path d="M74.0213 71.6534C73.9981 71.6534 73.9739 71.6505 73.9497 71.6438C73.7999 71.6041 73.711 71.4513 73.7496 71.3013C75.3207 65.3132 77.085 59.2864 78.9925 53.3912C79.0398 53.2441 79.1955 53.1629 79.3453 53.2112C79.4923 53.2586 79.5735 53.4173 79.5252 53.5643C77.6197 59.4499 75.8592 65.4651 74.291 71.4435C74.2591 71.5702 74.1451 71.6534 74.0213 71.6534Z" fill="#222222"/>
<path d="M77.47 73.015C77.4468 73.015 77.4227 73.0121 77.3995 73.0063C77.2496 72.9667 77.1598 72.8138 77.1984 72.6639L81.109 57.6008C81.1477 57.4518 81.2995 57.3608 81.4513 57.3995C81.6011 57.4392 81.6911 57.592 81.6524 57.742L77.7417 72.8041C77.7079 72.9309 77.5948 73.015 77.47 73.015Z" fill="#222222"/>
<path d="M81.1013 70.5229C81.0762 70.5229 81.05 70.52 81.0249 70.5123C80.876 70.4697 80.7891 70.3139 80.8316 70.165C81.5973 67.4631 82.3446 64.7051 83.0513 61.9683C83.09 61.8184 83.2427 61.7275 83.3926 61.7671C83.5424 61.8058 83.6324 61.9587 83.5937 62.1086C82.885 64.8502 82.1367 67.612 81.37 70.3188C81.3362 70.4426 81.2231 70.5229 81.1013 70.5229Z" fill="#222222"/>
<path d="M84.5365 69.2096C84.52 69.2096 84.5026 69.2077 84.4862 69.2057C84.3334 69.1786 84.2319 69.0326 84.26 68.8807C84.463 67.7479 84.7502 66.6199 85.1146 65.5277C85.1639 65.3807 85.3235 65.3023 85.4694 65.3497C85.6164 65.3991 85.6956 65.5577 85.6473 65.7048C85.2915 66.7718 85.0102 67.8736 84.813 68.9794C84.7878 69.1138 84.6699 69.2096 84.5365 69.2096Z" fill="#222222"/>
<g opacity="0.1294">
<path d="M139.58 59.3005C139.404 59.345 139.266 59.4563 139.129 59.5704C139.289 59.4398 139.285 59.4369 139.172 59.4892C139.159 59.4921 139.142 59.4969 139.114 59.5056C139.003 59.5288 138.933 59.5434 138.881 59.554C137.214 59.7823 135.527 59.7842 133.855 59.9574C126.724 60.7603 119.594 61.5903 112.432 62.0731C109.157 62.2511 105.896 62.5616 102.642 62.966C99.3319 63.1933 96.5814 63.4409 94.7039 63.8492C89.2551 64.7798 81.8051 67.59 80.2302 68.3688C77.4314 69.5529 77.1926 69.6535 74.9216 70.5696C73.9867 71.0571 72.7667 71.24 72.1103 72.1126C71.8918 72.3786 71.7583 72.6601 71.6829 72.9455C71.9111 73.0664 72.5134 73.4543 72.6033 73.5056C72.7347 73.581 73.9355 74.1547 73.5643 74.027C74.4286 74.355 75.2987 74.6384 76.1466 74.9934C76.8194 74.7235 77.6286 74.4188 78.5122 74.0947C78.5867 73.8306 78.7626 73.5878 78.9802 73.4476C79.4635 73.1361 80.0543 73.3789 80.3559 73.8084L82.0555 76.2268C82.2034 76.4368 82.3494 76.6486 82.4973 76.8585C82.6046 76.8421 82.7129 76.8218 82.8231 76.7918C84.9162 76.0421 87.395 74.7729 87.8755 74.59C89.3779 73.851 92.1535 73.3431 92.3885 71.4499C92.0626 71.0349 91.7572 70.6054 91.4787 70.1555C91.2312 69.755 91.4052 69.2462 91.7803 69.0044C92.081 68.8099 92.459 68.8747 92.7249 69.0827C94.9572 68.3949 97.2088 67.7768 99.4904 67.2786C102.521 66.8606 105.953 66.3924 107.739 66.2173C113.194 65.9029 118.103 65.398 122.351 64.9172C126.99 64.2758 135.219 63.5667 137.59 63.1043C138.435 62.9843 139.292 62.9195 140.124 62.726C139.975 62.7464 139.825 62.7657 139.676 62.786C139.89 62.7589 140.105 62.728 140.319 62.698C140.709 62.6873 141.096 62.5713 141.386 62.3159C143.053 61.1008 141.467 58.4096 139.58 59.3005Z" fill="#222222"/>
</g>
<g opacity="0.1294">
<path d="M142.684 37.2352C142.417 36.1178 140.893 35.5896 140.021 36.3539C139.558 36.6441 139.43 37.1974 139.249 37.6898C138.88 38.4763 138.467 39.2493 137.974 39.9651C137.959 39.9835 137.944 40.0028 137.928 40.0212C137.83 40.2592 137.008 40.6665 135.733 41.2914C135.124 41.6764 134.34 41.8757 133.842 42.4049C134.221 43.0114 134.542 43.6547 134.829 44.3203C135.069 44.8756 135.301 45.4347 135.533 45.9929C135.824 45.9677 136.12 45.8836 136.412 45.7094C138.514 44.6714 140.518 43.2358 141.601 41.097C142.152 39.8993 142.869 38.5885 142.684 37.2352Z" fill="#222222"/>
</g>
<path d="M83.2814 20.6461H64.4195C63.9554 20.6461 63.5784 20.2689 63.5784 19.8045C63.5784 19.3402 63.9554 18.9629 64.4195 18.9629H83.2814C83.7454 18.9629 84.1225 19.3402 84.1225 19.8045C84.1225 20.2689 83.7454 20.6461 83.2814 20.6461Z" fill="#222222"/>
<path d="M47.4883 56.9176H14.1943C13.7303 56.9176 13.3532 56.5403 13.3532 56.076C13.3532 55.6117 13.7303 55.2344 14.1943 55.2344H47.4883C47.9523 55.2344 48.3294 55.6117 48.3294 56.076C48.3294 56.5403 47.9533 56.9176 47.4883 56.9176Z" fill="#222222"/>
<path d="M47.4883 69.5934H14.1943C13.7303 69.5934 13.3532 69.2161 13.3532 68.7518C13.3532 68.2874 13.7303 67.9102 14.1943 67.9102H47.4883C47.9523 67.9102 48.3294 68.2874 48.3294 68.7518C48.3294 69.2161 47.9533 69.5934 47.4883 69.5934Z" fill="#222222"/>
<path d="M52.325 14.5039H14.1952V43.1191H52.325V14.5039Z" fill="#AFC2AB"/>
<path d="M52.325 43.9605H14.1952C13.7312 43.9605 13.3541 43.5833 13.3541 43.1189V14.5037C13.3541 14.0394 13.7312 13.6621 14.1952 13.6621H52.325C52.7891 13.6621 53.1661 14.0394 53.1661 14.5037V43.1189C53.1661 43.5842 52.7891 43.9605 52.325 43.9605ZM15.0363 42.2773H51.4839V15.3454H15.0363V42.2773Z" fill="#222222"/>
</svg>
