<svg width="123" height="120" viewBox="0 0 123 120" fill="none" xmlns="http://www.w3.org/2000/svg">
<path d="M25.6611 82.8823C33.3646 90.4001 40.5044 98.4971 47.0024 107.082C50.4418 111.626 54.066 116.582 59.4818 118.343C60.6548 118.725 61.9228 118.94 63.1231 118.656C64.9113 118.233 66.311 116.726 66.9664 115.007C67.6217 113.288 67.62 111.383 67.3625 109.561C67.164 108.156 66.8064 106.747 66.0492 105.548C65.3451 104.434 64.3303 103.556 63.3199 102.711C56.288 96.8338 48.5921 91.5758 42.888 84.2242C43.9155 83.4213 44.9525 82.6089 45.7679 81.5909C46.5832 80.5729 47.1684 79.3158 47.1428 78.0107C47.1034 76.0252 45.7122 74.3593 44.5033 72.7286C58.2173 66.8904 72.6474 62.742 87.2725 60.0641C83.6637 53.9577 80.6598 47.5162 77.6618 41.0858C73.5945 32.3606 69.5262 23.6354 65.2064 15.4004C56.4625 25.333 45.5805 33.0967 34.8037 40.7679C27.3996 46.038 19.9732 51.3218 11.9873 55.6552C7.72745 57.9664 2.94138 60.4043 1.23708 64.9468C0.160776 67.8158 0.565479 71.0747 1.71537 73.9146C2.86611 76.7535 4.70814 79.2498 6.56216 81.6877C8.08422 83.6886 9.91174 85.8378 12.5426 86.3177C17.1858 86.178 21.7913 84.9012 25.6611 82.8823Z" fill="white"/>
<path d="M82.6516 21.6867C85.3655 28.9928 88.7364 36.0538 92.7106 42.7558C94.9034 42.2468 96.5452 40.3033 97.2861 38.1747C98.0271 36.0453 98.0125 33.735 97.9218 31.4822C97.885 30.5541 97.8329 29.6098 97.5137 28.7374C97.2297 27.9619 96.7471 27.2772 96.2543 26.614C95.0463 24.9867 93.715 23.3962 91.9927 22.3294C89.2104 20.6052 85.5084 20.4861 82.6516 21.6867Z" fill="white"/>
<path d="M86.938 60.8243C79.717 45.3662 72.4951 29.909 65.2501 14.2008C68.5261 10.7414 71.0321 6.50303 72.5191 1.9082C72.5191 1.9082 101.535 61.3641 101.542 61.1054C96.807 59.7771 91.7771 59.5843 86.938 60.8243Z" fill="#AFC2AB"/>
<path d="M36.2214 77.0255C35.9544 77.0255 35.6986 76.8815 35.5643 76.6322C30.7431 67.6311 26.4439 58.2126 22.7838 48.6399C22.6623 48.3237 22.7701 47.9655 23.0439 47.7684C26.0084 45.6338 29.0996 43.4786 32.089 41.3946C49.3364 29.3711 67.1708 16.938 71.6985 0.917821C71.7823 0.620468 72.0407 0.405389 72.3479 0.377967C72.6507 0.350546 72.9476 0.51507 73.0828 0.792713L102.509 60.9479C102.691 61.3181 102.538 61.7645 102.169 61.9454C102.022 62.0173 101.864 62.0353 101.713 62.0105C101.525 62.151 101.276 62.1999 101.037 62.1227C82.9296 56.2528 36.9871 76.753 36.5243 76.9604C36.4276 77.0049 36.324 77.0255 36.2214 77.0255ZM24.3803 48.6433C27.8898 57.7567 31.982 66.7244 36.5516 75.3168C42.3276 72.77 82.4624 55.5527 100.605 60.4397L72.566 3.12183C67.1391 18.7787 49.7642 30.8904 32.9403 42.6183C30.1117 44.5901 27.1925 46.6253 24.3803 48.6433Z" fill="#222222"/>
<path d="M86.5855 60.3292C86.3066 60.3292 86.0396 60.1716 85.9121 59.9033L65.0627 15.8386C64.8865 15.4667 65.0456 15.022 65.4169 14.8454C65.7908 14.6689 66.2323 14.8283 66.4085 15.1994L87.258 59.2641C87.4342 59.6368 87.2751 60.0807 86.9046 60.2572C86.8011 60.3061 86.6924 60.3292 86.5855 60.3292Z" fill="#222222"/>
<path d="M93.4232 43.6998C93.1948 43.6998 92.9697 43.5953 92.8243 43.3973C92.5804 43.0657 92.6498 42.5995 92.98 42.3544C95.3482 40.602 97.0063 37.7716 97.417 34.7835C97.8277 31.7928 96.9943 28.5999 95.1882 26.2417C94.3096 25.0943 93.199 24.1045 91.8874 23.2981C89.6535 21.9254 86.3151 21.0222 83.6432 22.61C83.2907 22.82 82.8329 22.7043 82.6233 22.3495C82.4137 21.9956 82.5301 21.538 82.8834 21.3281C86.1235 19.4009 90.0608 20.4257 92.666 22.0273C94.1333 22.9288 95.379 24.042 96.3698 25.3342C98.4129 28.0018 99.3557 31.6103 98.892 34.9866C98.4274 38.3646 96.5486 41.5669 93.8647 43.5532C93.732 43.6518 93.5772 43.6998 93.4232 43.6998Z" fill="#222222"/>
<path d="M14.4643 87.2127C13.417 87.2127 12.3767 87.0421 11.3551 86.6445C8.34179 85.4714 6.41588 82.6872 4.54903 79.6949C3.0398 77.2732 1.32867 74.5293 0.49449 71.423C-0.444928 67.9259 -0.0333976 64.5136 1.62299 62.0611C2.94998 60.0944 5.00763 58.8262 6.66059 57.8082C11.9822 54.5287 17.2791 51.305 23.5564 47.9176C23.9183 47.7222 24.3701 47.8576 24.5651 48.22C24.7602 48.5825 24.625 49.035 24.2631 49.2304C18.0208 52.5989 12.7437 55.8107 7.44086 59.0781C5.90939 60.0216 4.00403 61.1956 2.85671 62.8966C1.44245 64.9909 1.10622 67.9567 1.9327 71.0356C2.71042 73.9278 4.35911 76.5722 5.81272 78.9048C7.54098 81.6761 9.30685 84.2477 11.8941 85.2546C15.4122 86.6231 19.3111 84.7859 23.0063 82.7875C25.3274 81.5313 27.4415 80.341 29.4864 79.191C31.5389 78.0358 33.6616 76.8421 35.9973 75.5782C36.3575 75.382 36.8101 75.5174 37.006 75.8798C37.2019 76.2415 37.0667 76.6939 36.7048 76.8901C34.3802 78.149 32.2627 79.3401 30.2162 80.4918C28.1662 81.6452 26.047 82.8372 23.7147 84.0994C20.84 85.6548 17.6264 87.2127 14.4643 87.2127Z" fill="#222222"/>
<path d="M61.3419 120C57.6261 120 54.2825 117.243 52.8341 115.853C49.9619 113.1 47.6219 109.795 45.3589 106.6C44.843 105.872 44.3288 105.145 43.8078 104.424C38.2894 96.7906 31.9752 89.7416 25.0383 83.4723C24.7328 83.1964 24.7089 82.7251 24.9844 82.4192C25.2599 82.1132 25.7304 82.0893 26.0359 82.3652C33.0498 88.7039 39.435 95.8309 45.0133 103.549C45.5369 104.274 46.0545 105.005 46.573 105.736C48.7958 108.875 51.0947 112.121 53.8633 114.776C55.4384 116.286 59.5221 119.636 63.3995 118.124C66.8919 116.763 68.1214 111.849 66.8877 108.363C65.7823 105.239 63.5133 103.673 60.3734 101.505C59.7813 101.096 59.1636 100.669 58.521 100.21L58.3337 100.076C53.5468 96.6767 48.5057 92.0887 43.3501 86.4373C42.0171 84.9762 40.6841 82.63 39.2732 80.1458C38.5032 78.7893 37.7067 77.3873 36.9187 76.1593C36.6971 75.8131 36.7972 75.3513 37.1429 75.1293C37.4894 74.9082 37.9488 75.0076 38.1713 75.3538C38.9798 76.6161 39.7866 78.036 40.566 79.4088C41.9349 81.8185 43.2268 84.0936 44.4477 85.4321C49.5324 91.0047 54.493 95.5232 59.1935 98.8601L59.3852 98.9964C60.02 99.4505 60.6317 99.873 61.2169 100.277C64.4596 102.517 67.0211 104.286 68.2891 107.866C69.753 112.003 68.3267 117.804 63.9377 119.515C63.0667 119.855 62.194 120 61.3419 120Z" fill="#222222"/>
<path d="M43.4159 84.9364C43.2371 84.9364 43.0583 84.8729 42.9154 84.7435C42.6108 84.4668 42.5877 83.9954 42.8641 83.6904L45.3153 80.9851C45.6276 80.6397 45.951 80.2832 46.1563 79.8993C46.6132 79.0493 46.5867 77.8607 46.0862 76.7202C45.5985 75.6104 44.7575 74.655 43.9455 73.7312C43.6734 73.4219 43.7034 72.9514 44.0114 72.6789C44.3203 72.4055 44.7908 72.4364 45.0621 72.7449C45.9091 73.7072 46.8682 74.7981 47.4491 76.1203C48.1327 77.6765 48.1395 79.3535 47.4679 80.6054C47.1753 81.1496 46.7732 81.5943 46.4173 81.9868L43.9669 84.6921C43.8206 84.8532 43.6178 84.9364 43.4159 84.9364Z" fill="#222222"/>
<path d="M7.66328 67.1485C7.41089 67.1485 7.16448 67.02 7.02502 66.7877C6.81284 66.4347 6.92663 65.9771 7.27912 65.7646C11.9215 62.9659 16.7494 60.3814 21.6305 58.0823C22.0035 57.9083 22.4458 58.0668 22.6212 58.4396C22.7958 58.8124 22.6366 59.2563 22.2644 59.4319C17.4288 61.7096 12.6453 64.2701 8.04657 67.0422C7.92679 67.1142 7.79418 67.1485 7.66328 67.1485Z" fill="#222222"/>
<path d="M10.8828 73.0483C10.6125 73.0483 10.3515 72.9 10.2197 72.6421C10.0324 72.2753 10.1778 71.8263 10.544 71.6386C15.3327 69.1853 20.2299 66.7987 25.1007 64.5442C25.472 64.3702 25.9161 64.5339 26.088 64.9084C26.2609 65.282 26.0974 65.725 25.7244 65.8973C20.8725 68.1433 15.9932 70.5221 11.2216 72.966C11.113 73.0217 10.9975 73.0483 10.8828 73.0483Z" fill="#222222"/>
<path d="M14.0878 79.4737C13.8303 79.4737 13.5805 79.34 13.4419 79.1001C13.2365 78.7436 13.3589 78.2877 13.7157 78.082C18.417 75.3682 23.3169 72.8994 28.2783 70.7433C28.6556 70.5797 29.0937 70.7528 29.2571 71.1307C29.4205 71.5086 29.2477 71.9473 28.8704 72.111C23.9602 74.2447 19.1117 76.6878 14.4591 79.3743C14.3419 79.442 14.2145 79.4737 14.0878 79.4737Z" fill="#222222"/>
<path d="M96.8209 18.6893C96.6378 18.6893 96.4547 18.6225 96.311 18.4871C96.0115 18.2052 95.997 17.733 96.2785 17.4331C100.536 12.8974 103.278 6.94091 103.999 0.66052C104.046 0.250911 104.418 -0.0421567 104.824 0.0049741C105.232 0.0521049 105.525 0.4223 105.478 0.831052C104.72 7.42765 101.839 13.6858 97.3633 18.4537C97.217 18.6105 97.0194 18.6893 96.8209 18.6893Z" fill="#222222"/>
<path d="M101.81 24.5547C101.583 24.5547 101.359 24.451 101.213 24.2539C100.968 23.924 101.036 23.4561 101.365 23.211C104.799 20.6505 108.501 18.4491 112.367 16.6667C112.74 16.4936 113.183 16.6573 113.355 17.0318C113.527 17.4054 113.363 17.8484 112.989 18.0206C109.217 19.7602 105.605 21.9085 102.254 24.4073C102.121 24.5067 101.964 24.5547 101.81 24.5547Z" fill="#222222"/>
<path d="M122.255 33.9225C122.16 33.9225 122.063 33.9045 121.97 33.866C116.579 31.6234 110.673 30.7836 104.895 31.434C104.48 31.4812 104.117 31.1855 104.072 30.7768C104.025 30.368 104.319 29.9987 104.728 29.9524C110.759 29.272 116.919 30.1495 122.541 32.4881C122.921 32.6466 123.1 33.0828 122.943 33.4624C122.824 33.7494 122.548 33.9225 122.255 33.9225Z" fill="#222222"/>
<path d="M79.0437 57.7683C78.9598 57.7683 78.8785 57.7255 78.8315 57.6492L72.8998 47.858C72.8288 47.7406 72.8664 47.5881 72.9828 47.5161C73.1 47.4458 73.2523 47.4826 73.3242 47.5992L79.2559 57.3904C79.3269 57.5078 79.2892 57.6603 79.172 57.7323C79.1318 57.7572 79.0873 57.7683 79.0437 57.7683Z" fill="#222222"/>
<path d="M74.486 59.3238C74.403 59.3238 74.3217 59.2818 74.2747 59.2056L71.2596 54.3159C71.1878 54.1986 71.2237 54.046 71.3409 53.974C71.4573 53.9038 71.6104 53.9372 71.6823 54.0546L74.6973 58.945C74.7692 59.0624 74.7333 59.215 74.616 59.287C74.5758 59.311 74.5305 59.3238 74.486 59.3238Z" fill="#222222"/>
<path d="M69.4253 61.5576C69.3432 61.5576 69.2619 61.5164 69.2148 61.4402L66.9279 57.776C66.8552 57.6603 66.8903 57.5069 67.0066 57.4341C67.1221 57.3621 67.2753 57.3963 67.348 57.5129L69.6349 61.1771C69.7076 61.2928 69.6726 61.4462 69.5562 61.519C69.516 61.5447 69.4707 61.5576 69.4253 61.5576Z" fill="#222222"/>
<path d="M63.7794 63.0872C63.6955 63.0872 63.6126 63.0435 63.5655 62.9656L61.8946 60.1386C61.8244 60.0203 61.8638 59.8686 61.981 59.7984C62.0982 59.729 62.2514 59.7667 62.3207 59.8849L63.9924 62.7119C64.0626 62.8302 64.0232 62.9818 63.9052 63.053C63.8667 63.0761 63.823 63.0872 63.7794 63.0872Z" fill="#222222"/>
<g opacity="0.1294">
<path d="M98.3992 32.512C98.1228 31.6594 96.9284 31.428 96.3107 32.0561C95.9411 32.4032 95.9266 32.9379 95.7426 33.3852C95.2729 34.9936 94.0939 36.8506 93.1451 37.8044C92.0654 38.9972 92.3007 38.3245 91.3279 39.4539C90.3286 41.1463 92.5419 42.9091 93.9579 41.5474C96.4801 39.5953 97.0191 37.7109 98.0244 35.3853C98.2529 34.7177 98.4265 34.0219 98.459 33.3149C98.5052 33.0416 98.5369 32.7631 98.3992 32.512Z" fill="#222222"/>
</g>
<g opacity="0.1294">
<path d="M99.3651 56.9381C96.9901 56.1274 94.4507 56.5233 91.9918 56.4111C86.3202 56.507 80.6487 57.304 75.108 58.49C72.6764 59.1995 70.1705 59.4857 67.6868 59.9287C65.5521 60.3049 63.509 61.0359 61.4556 61.7111C55.3623 63.7875 49.0687 65.2665 43.1421 67.8236C36.893 70.4672 31.076 73.9832 25.2821 77.488C21.4833 79.7785 19.1322 81.3664 15.5294 82.1445C13.8226 82.5404 13.0654 82.411 10.5449 82.285C9.72437 82.1608 8.70966 82.3065 8.39481 83.1951C7.90457 84.1531 8.70881 85.4111 9.78256 85.4042C11.6605 85.5576 13.5325 86.0332 15.4259 85.7976C19.6815 85.4428 23.2279 82.854 26.882 80.8917C27.2567 80.6989 27.6264 80.4966 27.9977 80.2978C27.4561 80.6569 26.9196 81.0219 26.3918 81.3998C25.3762 81.9114 24.6849 83.2431 25.5097 84.2251C25.8776 84.7958 26.5928 85.0152 27.2396 84.8935C27.676 85.1806 28.2492 85.2594 28.7651 84.9526C29.6977 84.3519 30.6996 83.8738 31.7245 83.4556C32.5493 83.1591 32.7401 83.01 34.1672 82.8163C34.3144 82.8129 34.6976 82.7992 34.9663 82.8232C36.1709 83.0837 35.9228 83.1291 36.4524 83.3759C36.7493 83.5516 37.0342 83.7461 37.3114 83.95C38.623 85.1515 40.0116 86.2637 41.3189 87.4703C42.0205 88.1335 42.6647 88.8551 43.4553 89.4181C43.7 89.5543 44.1586 89.8885 44.7301 90.3255C44.8148 90.4009 44.8978 90.4798 44.9833 90.5543C45.5215 91.0111 46.0879 91.4301 46.6637 91.838C47.4482 92.4584 48.2516 93.0943 48.9343 93.6161C48.9694 93.6461 50.1193 94.5596 50.8679 95.114C51.4258 95.6145 52.2805 96.0472 52.9419 95.4739C53.3405 95.2109 53.5151 94.7233 53.4612 94.2605C53.2901 94.1371 53.1275 94.0112 52.9786 93.8938C52.2608 93.3299 51.549 92.7583 50.85 92.1722C49.4605 91.0068 48.0805 89.8011 46.8365 88.4797C44.3425 85.831 42.0487 82.986 40.2092 79.8385C40.0227 79.5197 40.1143 79.2198 40.3188 79.0244C40.0475 78.6448 39.8508 78.3672 39.6026 78.0561C41.6569 77.2857 41.8939 77.0072 44.0798 76.6413C44.091 76.6447 44.1012 76.6499 44.1115 76.6533C44.9979 76.9344 46.0151 76.3791 46.2615 75.481C46.7407 73.9489 44.9251 72.6412 43.6135 73.5564C43.6101 73.559 43.6076 73.5607 43.605 73.5633C43.5366 73.5847 43.4673 73.6044 43.3988 73.625C42.8607 73.7458 42.3336 73.8966 41.8092 74.0603C43.5562 73.2608 45.0928 72.5624 45.6412 72.3301C50.589 70.5075 54.4117 69.1167 60.0303 67.4337C63.6031 66.3291 64.7949 65.5665 67.7201 64.7121C71.7413 63.7386 75.7103 62.5278 79.7871 61.8166C81.0773 61.574 82.3615 61.2904 83.6662 61.1387C84.7699 60.963 84.8162 61.0839 85.3286 60.8902C85.6572 60.7908 85.9369 60.5157 86.0533 60.1935C86.0687 60.1627 86.0781 60.131 86.091 60.1001C88.5019 59.7882 90.8804 59.592 93.9246 59.6759C96.3989 59.6811 97.3597 59.5371 99.1838 60.173C99.2471 60.1927 99.3104 60.2141 99.3737 60.233C99.4113 60.251 99.443 60.2775 99.4841 60.2904C100.134 60.6391 100.99 60.3186 101.361 59.7059C102.15 58.1703 100.638 57.3503 99.3651 56.9381ZM37.7315 76.236C37.6228 76.1752 37.5142 76.1255 37.4055 76.08C37.5587 76.0098 37.7161 75.9378 37.877 75.8641C37.8068 75.9849 37.7614 76.11 37.7315 76.236Z" fill="#222222"/>
</g>
</svg>
